<svg width="211" height="31" fill="none" xmlns="http://www.w3.org/2000/svg"><path d="M203.25 0h-15.5A7.75 7.75 0 0 0 180 7.75v15.5a7.75 7.75 0 0 0 7.75 7.75h15.5a7.75 7.75 0 0 0 7.75-7.75V7.75A7.75 7.75 0 0 0 203.25 0z" fill="#fff"/><path d="M201.7 14.524a6.2 6.2 0 1 1-12.265 1.818 6.2 6.2 0 0 1 12.265-1.818z" fill="#C3C3C3"/><path d="M204.025 6.975h.016" stroke="#C3C3C3" stroke-width="2" stroke-linecap="round" stroke-linejoin="round"/><path d="M149.205 6.226a4.882 4.882 0 0 0-1.212-2.201 4.789 4.789 0 0 0-2.139-1.291C142.883 2 131 2 131 2s-11.883 0-14.854.803a4.789 4.789 0 0 0-2.139 1.292 4.882 4.882 0 0 0-1.212 2.201 51.271 51.271 0 0 0-.794 9.239 51.313 51.313 0 0 0 .794 9.308 4.875 4.875 0 0 0 1.241 2.122 4.79 4.79 0 0 0 2.11 1.232C119.117 29 131 29 131 29s11.883 0 14.854-.803a4.789 4.789 0 0 0 2.139-1.292 4.882 4.882 0 0 0 1.212-2.201c.539-3.026.805-6.095.794-9.17a51.313 51.313 0 0 0-.794-9.308z" fill="#fff" stroke="#fff" stroke-linecap="round" stroke-linejoin="round"/><path d="M126 20.57a.01.01 0 0 0 .015.009l9.278-5.277a.01.01 0 0 0 0-.017l-9.278-5.277a.01.01 0 0 0-.015.01V20.57z" fill="#C3C3C3"/><path d="M82.061 1.016a16.907 16.907 0 0 1-4.87 2.373 6.948 6.948 0 0 0-12.19 4.653v1.55a16.533 16.533 0 0 1-13.96-7.025s-6.204 13.959 7.755 20.163a18.053 18.053 0 0 1-10.857 3.102c13.96 7.755 31.02 0 31.02-17.837a6.978 6.978 0 0 0-.124-1.287 11.974 11.974 0 0 0 3.226-5.692zM18 0h-4.91c-2.169 0-4.25.817-5.785 2.27C5.771 3.723 4.91 5.695 4.91 7.75v4.65H0v6.2h4.91V31h6.544V18.6h4.91L18 12.4h-6.546V7.75c0-.411.173-.805.48-1.096.307-.29.723-.454 1.157-.454H18V0z" fill="#fff"/></svg>